# xmcd
#
# Track frame offsets:
#	150
#	18167
#	35987
#	59782
#	75122
#	104985
#	139997
#	156937
#	194905
#	211755
#	243650
#	273170
#	303892
#	331472
#
# Disc length: 4625 seconds
#
# Revision: 7
# Processed by: cddbd v1.5.2PL0 Copyright (c) Steve Scherf et al.
# Submitted via: EasyCDDAExtractor 15.3.0.1
#
DISCID=d2120f0e
DTITLE=Anastacia - Pieces Of A Dream - CD 2
DYEAR=2005
DGENRE=Pop/Rock
TTITLE0=I'm Outta Love (Hex Hector Radio Edit)
TTITLE1=Left Outside Alone (M*A*S*H Radio Mix)
TTITLE2=Paid My Dues (The S-Man's Darkstar Mix)
TTITLE3=Sick And Tired (Jason Nevins Funkrock Remix Edit)
TTITLE4=Why'd You Lie To Me (Nu Soul Dnb Mix)
TTITLE5=Love Is A Crime (Thunderpuss Club Mix)
TTITLE6=Not That Kind (Kerri Chandler Mix - Radio Edit)
TTITLE7=One Day In Your Life (Hex Hector, Mac Quayle Club Mix)
TTITLE8=Left Outside Alone (Jason Nevins Global Club Edit)
TTITLE9=Not That Kind (Ric Wake Club Final)
TTITLE10=Love Is A Crime (Cotto's Doin' The Crime Mix)
TTITLE11=Boom (Thunderpuss Tribe-A-Pella Mix)
TTITLE12=One Day In Your Life (Almighty Mix)
TTITLE13=Sick And Tired (Jason Nevins Electrochill Remix Edit)
EXTD=YEAR: 2005
EXTT0=
EXTT1=
EXTT2=
EXTT3=
EXTT4=
EXTT5=
EXTT6=
EXTT7=
EXTT8=
EXTT9=
EXTT10=
EXTT11=
EXTT12=
EXTT13=
PLAYORDER=
